<svg width="122" height="41" viewBox="0 0 122 41" fill="none" xmlns="http://www.w3.org/2000/svg">
<path d="M25.1228 5.65723V11.9601H17.6894V35.8623H10.5212V11.9601H3.08789V5.65723H25.1228Z" fill="#0D0D0D"/>
<path d="M34.2458 35.8621H27.6191V12.35H34.2458V16.8516C35.505 13.6799 37.518 11.7936 41.1021 12.0237V18.9886C36.42 18.6229 34.2458 19.772 34.2458 23.5396V35.8621Z" fill="#0D0D0D"/>
<path d="M77.3033 36.045C72.9598 36.045 70.2285 33.9549 70.2285 29.0119V3.26904H76.9025V28.0903C76.9025 29.5164 77.8362 30.0235 78.9833 30.0235C79.3135 30.0299 79.6437 30.014 79.9718 29.976V35.7705C79.0991 35.9851 78.2012 36.0774 77.3033 36.045Z" fill="#0D0D0D"/>
<path d="M91.2263 36.045C86.8828 36.045 84.1465 33.9549 84.1465 29.0119V3.26904H90.8204V28.0903C90.8204 29.5164 91.7616 30.0235 92.9268 30.0235C93.2553 30.0305 93.584 30.0146 93.9103 29.976V35.7705C93.0327 35.9869 92.1293 36.0793 91.2263 36.045Z" fill="#0D0D0D"/>
<path d="M97.1074 24.0962C97.1074 16.8336 101.269 11.8644 108.436 11.8644C115.603 11.8644 119.678 16.8174 119.678 24.0962C119.678 31.375 115.558 36.413 108.437 36.413C101.316 36.413 97.1074 31.3112 97.1074 24.0962ZM103.605 24.0962C103.605 27.6331 105.082 30.4391 108.437 30.4391C111.792 30.4391 113.187 27.6331 113.187 24.0962C113.187 20.5593 111.755 17.8259 108.437 17.8259C105.12 17.8259 103.605 20.5537 103.605 24.0962Z" fill="#0D0D0D"/>
<path d="M50.0455 26.2217C51.9011 26.4263 53.7659 26.5361 55.6327 26.5506C60.7094 26.5506 64.9956 25.182 64.9956 20.2446C64.9956 15.4529 60.5899 11.8529 55.2891 11.8529C48.1526 11.8529 43.5801 17.0522 43.5801 24.3148C43.5801 31.8543 47.5227 36.3316 56.4338 36.3316C59.0772 36.3533 61.7016 35.8822 64.174 34.9423V29.3097C61.8852 30.0462 59.3101 30.7777 56.6678 30.7777C53.1198 30.7783 50.6468 29.6073 50.0455 26.2217ZM55.154 16.9841C57.0319 16.9841 58.5401 18.2639 58.5401 20.0145C58.5401 22.2653 56.1748 22.9718 53.4478 22.9718C52.2877 22.9662 51.1297 22.8736 49.9833 22.6949C50.0698 21.597 50.3834 20.5293 50.9039 19.56C51.3218 18.7921 51.9359 18.1499 52.6828 17.6994C53.4298 17.2488 54.2828 17.0063 55.154 16.9966V16.9841Z" fill="#0D0D0D"/>
</svg>
